<svg width="229" height="226" viewBox="0 0 229 226" fill="none" xmlns="http://www.w3.org/2000/svg">
<path d="M150.465 100C152.965 99.6667 158.435 100 160.965 100C165 100 179.243 97 183.465 94C190.5 89 198.465 83.0415 198.465 77C198.465 72.5 198.465 67 198.465 58C195.965 39.5 179.798 33.6667 169.465 28H102.965V173H77.9647V124.5M150.465 100V124.5M150.465 100V52.5M150.465 124.5H160.965L193.965 178H221.965L186.465 120C198.965 116.167 223.565 98.4 221.965 58C220.365 17.6 182.298 5.16667 163.465 4H77.9647V100M150.465 124.5V221.5C121.465 219.833 62.5 221.5 54.9998 221.5C47.5666 221.5 -1.5351 195.5 4.46486 157C10.4648 118.5 37.5 106.5 43.9649 104.5C50.4297 102.5 68.1315 100.167 77.9647 100M125.965 52.5V195.5H57.9646C47.4647 192.5 27.2647 180.6 30.4647 157C33.6646 133.4 50.1314 125.5 57.9646 124.5H77.9647M77.9647 124.5V100" stroke="black" stroke-width="7"/>
</svg>
