<svg width="226" height="224" viewBox="0 0 226 224" fill="none" xmlns="http://www.w3.org/2000/svg">
<path d="M159.965 123.5H149.465V220.5C120.465 218.833 61.5 220.5 53.9998 220.5C46.5666 220.5 -2.5351 194.5 3.46486 156C9.46483 117.5 36.5 105.5 42.9649 103.5C49.4297 101.5 67.1315 99.1667 76.9647 99V3H162.465C181.298 4.16667 219.365 16.6 220.965 57C222.565 97.4 197.965 115.167 185.465 119L220.965 177H192.965L159.965 123.5Z" fill="#F4D9D9"/>
<path d="M149.465 123.5V51.5V99C151.965 98.6667 157.435 99 159.965 99C164 99 178.243 96 182.465 93C189.5 88 197.465 82.0415 197.465 76C197.465 71.5 197.465 66 197.465 57C194.965 38.5 178.798 32.6667 168.465 27H101.965V172H76.9647V123.5M149.465 123.5H159.965L192.965 177H220.965L185.465 119C197.965 115.167 222.565 97.4 220.965 57C219.365 16.6 181.298 4.16667 162.465 3H76.9647V99M149.465 123.5V220.5C120.465 218.833 61.5 220.5 53.9998 220.5C46.5666 220.5 -2.5351 194.5 3.46486 156C9.46483 117.5 36.5 105.5 42.9649 103.5C49.4297 101.5 67.1315 99.1667 76.9647 99M124.965 51.5V194.5H56.9646C46.4647 191.5 26.2647 179.6 29.4647 156C32.6646 132.4 49.1314 124.5 56.9646 123.5H76.9647M76.9647 123.5V99" stroke="#1C1D1C" stroke-opacity="0.73" stroke-width="5"/>
</svg>
